<svg width="669" height="669" xmlns="http://www.w3.org/2000/svg" xmlns:xlink="http://www.w3.org/1999/xlink" xml:space="preserve" overflow="hidden"><defs><clipPath id="clip0"><rect x="1929" y="513" width="669" height="669"/></clipPath></defs><g clip-path="url(#clip0)" transform="translate(-1929 -513)"><path d="M2286.33 1016.91 2286.33 930 2244.67 930 2244.67 1016.91C2212.14 1028.38 2195.09 1063.99 2206.59 1096.44 2218.09 1128.89 2253.79 1145.89 2286.33 1134.42 2318.86 1122.95 2335.91 1087.34 2324.41 1054.89 2318.12 1037.14 2304.12 1023.18 2286.33 1016.91Z" fill="#000000" fill-rule="evenodd" fill-opacity="1"/><path d="M2473.03 764.021C2435.31 764.135 2402.43 789.715 2393.03 826.255L2138.29 826.255C2126.83 781.882 2081.59 755.198 2037.23 766.655 1992.88 778.113 1966.2 823.372 1977.65 867.745 1989.11 912.118 2034.35 938.802 2078.71 927.345 2107.93 919.798 2130.74 896.975 2138.29 867.745L2393.03 867.745C2404.56 912.021 2449.78 938.564 2494.04 927.03 2538.3 915.498 2564.83 870.257 2553.31 825.981 2543.79 789.44 2510.78 763.958 2473.03 764.021ZM2058.28 888.49C2035.38 888.49 2016.81 869.915 2016.81 847 2016.81 824.085 2035.38 805.511 2058.28 805.511 2081.19 805.511 2099.76 824.085 2099.76 847 2099.73 869.902 2081.18 888.461 2058.28 888.49ZM2473.03 888.49C2450.13 888.49 2431.56 869.915 2431.56 847 2431.56 824.085 2450.13 805.511 2473.03 805.511 2495.94 805.511 2514.51 824.085 2514.51 847 2514.48 869.902 2495.93 888.461 2473.03 888.49Z" fill="#000000" fill-rule="evenodd" fill-opacity="1"/><path d="M2328 618.575C2328.14 584.154 2300.27 556.138 2265.75 556 2231.23 555.862 2203.14 583.654 2203 618.075 2202.89 644.579 2219.61 668.251 2244.67 677.086L2244.67 764 2286.33 764 2286.33 677.086C2311.25 668.355 2327.95 644.912 2328 618.575Z" fill="#000000" fill-rule="evenodd" fill-opacity="1"/><path d="M1969.5 847 2006.25 773.5 2102.75 773.5 2139.5 847 2102.75 920.5 2006.25 920.5Z" stroke="#000000" stroke-width="20.625" stroke-linecap="butt" stroke-linejoin="round" stroke-miterlimit="10" stroke-opacity="1" fill="#000000" fill-rule="evenodd" fill-opacity="1"/><path d="M2386 846.5 2422.75 773 2519.25 773 2556 846.5 2519.25 920 2422.75 920Z" stroke="#000000" stroke-width="27.5" stroke-linecap="butt" stroke-linejoin="round" stroke-miterlimit="10" stroke-opacity="1" fill="#FFFFFF" fill-rule="evenodd" fill-opacity="1"/><path d="M2217 1074.5C2217 1048.82 2238.04 1028 2264 1028 2289.96 1028 2311 1048.82 2311 1074.5 2311 1100.18 2289.96 1121 2264 1121 2238.04 1121 2217 1100.18 2217 1074.5Z" stroke="#000000" stroke-width="27.5" stroke-linecap="butt" stroke-linejoin="round" stroke-miterlimit="10" stroke-opacity="1" fill="#FFFFFF" fill-rule="evenodd" fill-opacity="1"/></g></svg>